/* XPM */
static char * rng_xpm[] = {
"32 32 160 2",
"  	c None",
". 	c #BF0348",
"+ 	c #C00348",
"@ 	c #B80243",
"# 	c #BC0245",
"$ 	c #A6043A",
"% 	c #400A1A",
"& 	c #81072A",
"* 	c #9A0339",
"= 	c #6E651B",
"- 	c #2C250A",
"; 	c #241D0D",
"> 	c #44260B",
", 	c #9D4825",
"' 	c #473D2A",
") 	c #A89A35",
"! 	c #817827",
"~ 	c #3C3B2E",
"{ 	c #14171E",
"] 	c #3B2C09",
"^ 	c #87760F",
"/ 	c #776D2B",
"( 	c #3D3A07",
"_ 	c #1B2012",
": 	c #71747A",
"< 	c #49494B",
"[ 	c #01060E",
"} 	c #0D0E04",
"| 	c #282505",
"1 	c #570209",
"2 	c #560009",
"3 	c #501F16",
"4 	c #786B5B",
"5 	c #524F43",
"6 	c #3E2718",
"7 	c #500B09",
"8 	c #670003",
"9 	c #640711",
"0 	c #BD0209",
"a 	c #EE0000",
"b 	c #E12A0F",
"c 	c #7E4F2C",
"d 	c #53583B",
"e 	c #A75132",
"f 	c #EF1A10",
"g 	c #FB0103",
"h 	c #AE0308",
"i 	c #AA0441",
"j 	c #930539",
"k 	c #69072A",
"l 	c #890D1E",
"m 	c #BC090D",
"n 	c #E40000",
"o 	c #DD3236",
"p 	c #59363B",
"q 	c #202B2E",
"r 	c #873136",
"s 	c #E51E22",
"t 	c #DC0E0E",
"u 	c #C70E13",
"v 	c #631519",
"w 	c #810635",
"x 	c #A6012E",
"y 	c #3D252B",
"z 	c #5C2322",
"A 	c #D80000",
"B 	c #FF7071",
"C 	c #A95859",
"D 	c #773734",
"E 	c #C84847",
"F 	c #FE2F30",
"G 	c #B01415",
"H 	c #702B2B",
"I 	c #8B1E23",
"J 	c #4F1F20",
"K 	c #7D1515",
"L 	c #C10202",
"M 	c #E12324",
"N 	c #E22D2D",
"O 	c #ED4A46",
"P 	c #E54947",
"Q 	c #DD2728",
"R 	c #C70909",
"S 	c #762020",
"T 	c #8F2326",
"U 	c #BA1212",
"V 	c #A60C0C",
"W 	c #570F0E",
"X 	c #621010",
"Y 	c #BA1415",
"Z 	c #DB2829",
"` 	c #772121",
" .	c #4B1515",
"..	c #A90505",
"+.	c #BE1414",
"@.	c #BB2526",
"#.	c #D21B1B",
"$.	c #8F1212",
"%.	c #181111",
"&.	c #100F0F",
"*.	c #9C0505",
"=.	c #C40B0B",
"-.	c #2E0E0E",
";.	c #001010",
">.	c #610707",
",.	c #D52020",
"'.	c #D02A2A",
").	c #AE2626",
"!.	c #B61111",
"~.	c #650606",
"{.	c #690707",
"].	c #B40000",
"^.	c #D20303",
"/.	c #670808",
"(.	c #390A0A",
"_.	c #9D0000",
":.	c #D92828",
"<.	c #A72A2A",
"[.	c #7A2424",
"}.	c #931010",
"|.	c #BB0000",
"1.	c #DC0000",
"2.	c #C80000",
"3.	c #D50303",
"4.	c #CB0202",
"5.	c #A60000",
"6.	c #AB2222",
"7.	c #581F1F",
"8.	c #4D191A",
"9.	c #2A1413",
"0.	c #580606",
"a.	c #A10000",
"b.	c #A30101",
"c.	c #A40303",
"d.	c #BC0101",
"e.	c #9B0000",
"f.	c #360F0F",
"g.	c #4D1E1F",
"h.	c #311A1A",
"i.	c #321215",
"j.	c #310808",
"k.	c #6A0000",
"l.	c #710101",
"m.	c #5A0303",
"n.	c #830101",
"o.	c #640201",
"p.	c #3B1515",
"q.	c #221617",
"r.	c #500002",
"s.	c #6A0001",
"t.	c #6C0000",
"u.	c #5D0202",
"v.	c #630001",
"w.	c #5F0304",
"x.	c #560506",
"y.	c #580002",
"z.	c #660000",
"A.	c #5C0202",
"B.	c #4F0202",
"C.	c #470001",
"                                                                ",
"                                                                ",
"                        . . . . . . . .                         ",
"                    . . . . . . . . . . . . .                   ",
"                  . . . . . . . . . . . . . . . .               ",
"              . . . . . .                 . . . . .             ",
"              . . . .                       . . . . .           ",
"            . . . .                           . . . .           ",
"            . .                                 . . .           ",
"          . .                     . .             . .           ",
"          . .                 . .                 . .           ",
"        . . .               .                     . .           ",
"        . .               .                       + @           ",
"        . .               .                       # $ %         ",
"        . .               .                       & *           ",
"        . .               .                 = - ; > , '         ",
"        .                 .               ) ! ~ { ] ^ /         ",
"        . .               .               ( _ : < [ } |         ",
"        . .               . .           1 2 3 4 5 6 7 8         ",
"        . .                 . .       9 0 a b c d e f g h       ",
"        . . .                 + i j k l m n o p q r s t u v     ",
"        . . . .                   w x y z A B C D E F G H I     ",
"        . . . .                       J K L M N O P Q R S T     ",
"          . . .                       U V W X Y Z `  ...+.@.    ",
"          . . . .                     #.$.%.&.*.=.-.;.>.,.'.    ",
"            . . .                     ).!.~.{.].^./.(._.:.<.    ",
"              . . .                   [.}.|.1.2.3.4.|.5.6.7.    ",
"              . . . .                 8.9.0.a.b.c.d.e.f.g.h.    ",
"                . . . .                 i.j.k.l.m.n.o.p.  q.    ",
"                    . . . .               r.s.t.u.v.w.x.        ",
"                        . . .               y.z.A.B.C.          ",
"                                                                "};
